<?xml version="1.0" standalone="no"?>
<!DOCTYPE svg PUBLIC "-//W3C//DTD SVG 20010904//EN"
 "http://www.w3.org/TR/2001/REC-SVG-20010904/DTD/svg10.dtd">
<svg version="1.0" xmlns="http://www.w3.org/2000/svg"
 width="409.000000pt" height="409.000000pt" viewBox="0 0 409.000000 409.000000"
 preserveAspectRatio="xMidYMid meet">
<metadata>
Created by potrace 1.14, written by Peter Selinger 2001-2017
</metadata>
<g transform="translate(0.000000,409.000000) scale(0.100000,-0.100000)"
fill="#000000" stroke="none">
<path d="M1886 3973 c-2 -3 -24 -6 -48 -8 -24 -2 -43 -4 -43 -5 0 -1 -16 -3
-35 -6 -65 -9 -85 -12 -87 -14 -2 -1 -11 -3 -20 -4 -10 -2 -36 -8 -58 -14 -22
-6 -42 -11 -45 -11 -10 -1 -150 -50 -162 -58 -7 -4 -22 -9 -32 -10 -11 -2 -25
-8 -33 -14 -7 -6 -13 -8 -13 -5 0 4 -10 1 -22 -6 -13 -7 -25 -13 -28 -13 -9
-2 -125 -60 -130 -65 -3 -3 -23 -14 -44 -25 -22 -11 -44 -25 -50 -30 -6 -6
-35 -25 -63 -44 -29 -18 -53 -37 -53 -43 0 -5 -4 -7 -9 -3 -6 3 -13 0 -18 -7
-4 -7 -25 -25 -45 -40 -57 -43 -298 -288 -282 -288 2 0 -4 -8 -14 -18 -32 -35
-52 -62 -52 -72 0 -6 -4 -10 -10 -10 -5 0 -10 -5 -10 -11 0 -7 -15 -33 -34
-59 -47 -65 -96 -156 -89 -164 4 -3 1 -6 -5 -6 -6 0 -16 -16 -23 -35 -7 -19
-16 -35 -19 -35 -4 0 -7 -6 -7 -13 0 -6 -12 -42 -26 -79 -15 -36 -27 -73 -27
-80 0 -8 -4 -18 -9 -23 -6 -6 -12 -21 -15 -35 -3 -14 -10 -41 -16 -60 -5 -19
-13 -48 -16 -65 -8 -43 -12 -60 -14 -60 -3 0 -13 -90 -14 -122 -1 -18 -3 -33
-6 -33 -8 0 -10 -20 -13 -185 -1 -82 1 -172 5 -200 5 -27 11 -68 14 -90 5 -40
19 -122 28 -161 2 -11 11 -43 19 -70 8 -27 15 -52 16 -56 2 -16 6 -29 15 -53
5 -11 22 -56 38 -100 39 -102 104 -238 140 -291 15 -23 28 -45 28 -48 0 -5 51
-76 86 -119 8 -9 14 -19 14 -22 0 -3 8 -13 18 -23 9 -10 40 -45 67 -77 61 -71
57 -67 140 -140 139 -122 165 -142 345 -254 14 -8 27 -16 30 -16 3 -1 39 -17
80 -38 115 -56 320 -127 333 -115 2 2 10 -2 18 -9 8 -6 30 -14 49 -17 71 -12
96 -16 120 -22 63 -16 438 -24 525 -12 22 3 63 9 90 13 28 3 77 13 110 22 33
8 65 16 70 17 9 3 94 28 105 31 3 1 20 6 38 10 17 4 32 12 32 18 0 6 3 7 7 4
3 -4 12 -2 20 4 7 6 13 8 13 5 0 -4 10 -1 23 6 12 6 27 13 32 14 15 2 176 85
230 117 60 36 168 114 201 144 13 12 24 20 24 18 0 -2 22 17 49 43 27 26 62
58 78 73 25 22 84 88 157 174 14 17 26 33 26 36 0 3 9 17 20 30 12 12 31 39
43 59 11 19 27 41 33 47 7 7 20 31 30 53 10 22 21 40 25 40 4 0 10 10 14 22 4
13 8 25 9 28 1 3 13 25 26 50 13 25 33 68 43 95 34 92 68 190 72 209 3 10 9
33 14 50 6 17 13 45 16 61 2 17 7 41 10 55 8 36 18 111 19 138 0 12 3 22 6 22
10 0 13 272 4 340 -2 19 -6 55 -9 80 -4 43 -9 72 -20 130 -3 14 -7 34 -9 45
-2 11 -11 45 -20 76 -9 31 -18 65 -21 75 -2 11 -13 44 -24 74 -11 30 -27 75
-36 100 -13 38 -67 147 -110 225 -25 45 -89 140 -97 143 -4 2 -8 9 -8 15 0 7
-10 24 -23 38 -12 15 -35 44 -52 65 -16 21 -41 50 -55 64 -14 15 -39 42 -56
61 -17 19 -59 59 -94 89 -34 30 -70 63 -79 73 -8 9 -21 17 -28 17 -7 0 -13 3
-13 8 0 4 -17 18 -38 32 -20 14 -39 28 -42 31 -3 3 -36 24 -75 47 -38 23 -75
46 -82 52 -7 5 -15 10 -18 10 -3 0 -43 18 -90 40 -47 22 -89 40 -95 40 -6 0
-18 4 -28 9 -16 9 -44 19 -60 22 -4 0 -15 5 -25 11 -10 5 -26 11 -35 13 -9 2
-51 12 -93 24 -41 11 -91 22 -110 25 -44 7 -94 14 -144 22 -47 7 -383 13 -389
7z"/>
</g>
</svg>
